<?xml version="1.0" encoding="UTF-8" standalone="no"?>
<svg width="166px" height="37px" viewBox="0 0 166 37" version="1.1" xmlns="http://www.w3.org/2000/svg" xmlns:xlink="http://www.w3.org/1999/xlink" xmlns:sketch="http://www.bohemiancoding.com/sketch/ns">
    <!-- Generator: Sketch 3.5.2 (25235) - http://www.bohemiancoding.com/sketch -->
    <title>vedantra logo</title>
    <desc>Created with Sketch.</desc>
    <defs></defs>
    <g id="website" stroke="none" stroke-width="1" fill="none" fill-rule="evenodd" sketch:type="MSPage">
        <g id="home_v6" sketch:type="MSArtboardGroup" transform="translate(-144.000000, -13.000000)">
            <g id="nav" sketch:type="MSLayerGroup">
                <g id="vedantra-logo" transform="translate(144.000000, 13.000000)" sketch:type="MSShapeGroup">
                    <path d="M53.252,31.8018 C53.252,32.3936 53.065,32.8567 52.691,33.1944 C52.337,33.5133999 51.878,33.6728999 51.314,33.6728999 C51.129,33.6728999 50.945,33.6552999 50.76,33.6200999 L50.76,36.0477999 L50,36.0477999 L50,30.1562 C50.402,30.0517 50.844,30 51.33,30 C51.889,30 52.339,30.1419 52.683,30.4257 C53.062,30.7458 53.252,31.2034 53.252,31.8018 L53.252,31.8018 Z M52.454,31.7842 C52.454,31.0879 52.076,30.7392 51.322,30.7392 C51.159,30.7392 50.971,30.7601 50.76,30.8008 L50.76,32.8886 C50.971,32.9238 51.151,32.9414 51.298,32.9414 C51.652,32.9414 51.932,32.8446 52.141,32.6499 C52.349,32.4552 52.454,32.167 52.454,31.7842 Z M60.742,36.0477999 L59.848,36.0477999 L58.757,33.9940999 C58.635,33.7619999 58.524,33.6057999 58.424,33.5243999 C58.382,33.5298999 58.316,33.5331999 58.226,33.5331999 C58.089,33.5331999 57.934,33.5188999 57.76,33.4891999 L57.76,36.0477999 L57,36.0477999 L57,30.165 C57.454,30.055 57.884,30 58.29,30 C58.864,30 59.321,30.1254 59.658,30.374 C60.054,30.6754 60.252,31.1341 60.252,31.749 C60.252,32.1494 60.143,32.4948 59.928,32.7852 C59.711,33.0745 59.432,33.2637 59.089,33.3506 L59.089,33.3682 C59.221,33.3737 59.371,33.5298999 59.54,33.8378999 L60.742,36.0477999 Z M59.469,31.7314 C59.469,31.0648 59.083,30.7304 58.313,30.7304 C58.113,30.7304 57.929,30.7513 57.76,30.792 L57.76,32.8017 C57.944,32.8369 58.121,32.8545 58.29,32.8545 C58.638,32.8545 58.921,32.7599 59.141,32.5718 C59.359,32.3826 59.469,32.1032 59.469,31.7314 Z M66.999,35.9520999 L64,35.9520999 L64,30 L66.928,30 L66.928,30.7403 L64.76,30.7403 L64.76,32.4805 L66.572,32.4805 L66.572,33.2197 L64.76,33.2197 L64.76,35.2128999 L66.999,35.2128999 L66.999,35.9520999 Z M74.161,30.4257 L73.876,31.0439 C73.471,30.8294 73.08,30.7216 72.705,30.7216 C72.12,30.7216 71.65,30.9515 71.297,31.4091 C70.965,31.8447 70.799,32.3903 70.799,33.0459 C70.799,33.7014999 70.968,34.2492999 71.306,34.6903999 C71.669,35.1611999 72.146,35.3954999 72.737,35.3954999 C73.085,35.3954999 73.449,35.3118999 73.829,35.1424999 L74.066,35.7958999 C73.607,36.0224999 73.14,36.1346999 72.666,36.1346999 C71.875,36.1346999 71.228,35.8299999 70.727,35.2216999 C70.242,34.6298999 70,33.8961999 70,33.0195 C70,32.1373 70.246,31.4135 70.739,30.8481 C71.232,30.2827 71.878,30 72.674,30 C73.148,30 73.644,30.1419 74.161,30.4257 Z M77,30 L77.76,30 L77.76,35.9531999 L77,35.9531999 L77,30 Z M84.346,34.4296999 C84.346,34.9807999 84.146,35.4130999 83.746,35.7265999 C83.392,36.0048999 82.955,36.1434999 82.432,36.1434999 C81.931,36.1434999 81.454,36.0477999 81,35.8563999 L81.19,35.1435999 C81.638,35.3173999 82.055,35.4042999 82.44,35.4042999 C82.741,35.4042999 82.989,35.3371999 83.184,35.2040999 C83.416,35.0412999 83.532,34.8069999 83.532,34.4989999 C83.532,34.1513999 83.315,33.8466999 82.883,33.5859999 C82.482,33.3539 82.082,33.1218 81.68,32.8886 C81.248,32.5531 81.032,32.1142 81.032,31.5752 C81.032,31.0593 81.216,30.6578 81.585,30.374 C81.913,30.1254 82.321,30 82.812,30 C83.197,30 83.629,30.0924 84.109,30.2783 L83.879,30.9658 C83.501,30.8151 83.144,30.7392 82.812,30.7392 C82.163,30.7392 81.838,31.012 81.838,31.5576 C81.838,31.859 82.055,32.1318 82.488,32.376 C83.242,32.7995 83.645,33.0316 83.698,33.0723 C84.13,33.4199 84.346,33.8719999 84.346,34.4296999 Z M88,30 L88.76,30 L88.76,35.9531999 L88,35.9531999 L88,30 Z M96.881,33.0811 C96.881,33.9973999 96.664,34.7365999 96.229,35.2997999 C95.793,35.8618999 95.199,36.1434999 94.445,36.1434999 C93.691,36.1434999 93.094,35.8618999 92.657,35.2997999 C92.219,34.7365999 92,33.9973999 92,33.0811 C92,32.1527 92.216,31.4069 92.649,30.8437 C93.082,30.2816 93.68,30 94.445,30 C95.205,30 95.806,30.2871 96.248,30.8613 C96.67,31.4124 96.881,32.1527 96.881,33.0811 Z M96.083,33.0811 C96.083,32.3848 95.948,31.8271 95.679,31.4102 C95.394,30.9625 94.983,30.7392 94.445,30.7392 C93.907,30.7392 93.493,30.9625 93.203,31.4102 C92.934,31.8271 92.799,32.3848 92.799,33.0811 C92.799,33.7245999 92.923,34.2547999 93.171,34.6727999 C93.461,35.1600999 93.886,35.4042999 94.445,35.4042999 C95.004,35.4042999 95.428,35.1600999 95.718,34.6727999 C95.961,34.2547999 96.083,33.7245999 96.083,33.0811 Z M104.75,35.9003999 C104.608785,35.9641999 104.463591,35.9960999 104.317403,35.9960999 C103.90768,35.9960999 103.587459,35.7782999 103.357735,35.3437999 L101.131105,31.1484 C101.104254,31.0967 101.070442,31.0098 101.028674,30.8877 L101.004807,30.8877 L101.004807,35.9520999 L100.25,35.9520999 L100.25,30 L101.374751,30 L103.852983,34.7596999 C103.87884,34.8124999 103.920608,34.9026999 103.979282,35.0302999 L103.994199,35.0302999 L103.994199,30 L104.75,30 L104.75,35.9003999 Z M113,30 L113.76,30 L113.76,35.9531999 L113,35.9531999 L113,30 Z M122.75,35.9520999 L121.97277,35.9520999 L121.97277,30.792 L121.95741,30.792 C121.951266,30.8327 121.92157,30.9196 121.867297,31.0527 L120.189955,34.6210999 C119.914495,34.6210999 119.683066,34.4175999 119.493623,34.0116999 L118.132703,31.0527 C118.099935,30.9889 118.071262,30.902 118.043614,30.792 L118.02723,30.792 L118.02723,35.9520999 L117.25,35.9520999 L117.25,30 L118.431717,30 L119.88275,33.1757 C119.899134,33.2109 119.937023,33.3011 119.996416,33.4463 L120.019968,33.4463 C120.037377,33.388 120.069121,33.2956 120.118274,33.168 L121.576476,30 L122.75,30 L122.75,35.9520999 Z M131.75,35.9520999 L130.973794,35.9520999 L130.973794,30.792 L130.95741,30.792 C130.951266,30.8327 130.92157,30.9196 130.867297,31.0527 L129.189955,34.6210999 C128.915519,34.6210999 128.683066,34.4175999 128.494647,34.0116999 L127.133727,31.0527 C127.099935,30.9889 127.071262,30.902 127.044638,30.792 L127.02723,30.792 L127.02723,35.9520999 L126.25,35.9520999 L126.25,30 L127.432741,30 L128.883774,33.1757 C128.899134,33.2109 128.937023,33.3011 128.996416,33.4463 L129.019968,33.4463 C129.037377,33.388 129.069121,33.2956 129.118274,33.168 L130.576476,30 L131.75,30 L131.75,35.9520999 Z M139,33.9599999 C139,34.6441999 138.812545,35.1688999 138.437635,35.5340999 C138.082913,35.8772999 137.60322,36.0477999 137.000481,36.0477999 C136.39678,36.0477999 135.919971,35.8772999 135.570055,35.5340999 C135.190339,35.1754999 135,34.6496999 135,33.9599999 L135,30 L135.729632,30 L135.729632,33.8818999 C135.729632,34.8322999 136.153569,35.3085999 137.000481,35.3085999 C137.847392,35.3085999 138.270368,34.8322999 138.270368,33.8818999 L138.270368,30 L139,30 L139,33.9599999 Z M146.775,35.9003999 C146.633,35.9641999 146.487,35.9960999 146.34,35.9960999 C145.929,35.9960999 145.606,35.7782999 145.375,35.3437999 L143.136,31.1484 C143.109,31.0967 143.075,31.0098 143.033,30.8877 L143.009,30.8877 L143.009,35.9520999 L142.25,35.9520999 L142.25,30 L143.381,30 L145.873,34.7596999 C145.899,34.8124999 145.941,34.9026999 146,35.0302999 L146.016,35.0302999 L146.016,30 L146.775,30 L146.775,35.9003999 Z M150,30 L150.76,30 L150.76,35.9531999 L150,35.9531999 L150,30 Z M157.5,30.7403 L155.821685,30.7403 L155.821685,35.9520999 L155.068278,35.9520999 L155.068278,30.7403 L153.5,30.7403 L153.5,30 L157.5,30 L157.5,30.7403 Z M164.811,30 L162.778,33.4023 L162.778,35.9520999 L162.018,35.9520999 L162.018,33.4111 C161.944,33.3308 161.878,33.2406 161.821,33.1416 L160,30 L160.871,30 L162.263,32.4541 C162.289,32.4882 162.332,32.5784 162.39,32.7236 C162.411,32.6774 162.446,32.6081 162.492,32.5146 L163.933,30 L164.811,30 Z" id="tagline" fill="#602351"></path>
                    <path d="M69.1260061,7.67899924 C66.8690061,7.67899924 65.1000061,8.51499924 63.8220061,10.1979992 C62.6730061,11.7019992 62.1000061,13.6269992 62.1000061,15.9619992 C62.1000061,18.3859992 62.8120061,20.3829992 64.2390061,21.9559992 C65.6660061,23.5209992 67.5700061,24.3119992 69.9560061,24.3119992 C71.7230061,24.3119992 73.3740061,23.9619992 74.9050061,23.2619992 L74.0120061,21.0919992 C72.7980061,21.5839992 71.5300061,21.8249992 70.2100061,21.8249992 C68.7190061,21.8249992 67.5280061,21.3689992 66.6350061,20.4549992 C65.7810061,19.6049992 65.3120061,18.4479992 65.2290061,16.9809992 L75.8640061,16.9809992 C75.9710061,16.2999992 76.0240061,15.7219992 76.0240061,15.2289992 C76.0240061,13.0209992 75.4360061,11.2389992 74.2670061,9.87799924 C73.0100061,8.41199924 71.2970061,7.67899924 69.1260061,7.67899924 L69.1260061,7.67899924 Z M65.2290061,14.6549992 C65.2710061,13.3599992 65.6380061,12.2819992 66.3310061,11.4199992 C67.0230061,10.5639992 67.9650061,10.1299992 69.1570061,10.1299992 C70.3910061,10.1299992 71.3500061,10.5889992 72.0330061,11.5039992 C72.6490061,12.3309992 72.9670061,13.3789992 72.9890061,14.6549992 L65.2290061,14.6549992 Z M92.9979969,3.92099924 L90.1259969,1.03099924 L90.1259969,8.53599924 C89.0389969,7.96599924 87.8459969,7.67899924 86.5479969,7.67899924 C84.2029969,7.67899924 82.3729969,8.48299924 81.0529969,10.0999992 C79.8199969,11.5899992 79.1999969,13.5319992 79.1999969,15.9299992 C79.1999969,18.3769992 79.9789969,20.3829992 81.5319969,21.9559992 C83.0849969,23.5209992 85.0879969,24.3119992 87.5369969,24.3119992 C89.4529969,24.3119992 91.3269969,23.9619992 93.1579969,23.2619992 C93.0489969,22.3679992 92.9979969,21.7299992 92.9979969,21.3489992 L92.9979969,3.92099924 Z M87.5039969,21.8249992 C85.8629969,21.8249992 84.5889969,21.2309992 83.6709969,20.0419992 C82.8199969,18.9349992 82.3939969,17.5439992 82.3939969,15.8679992 C82.3939969,14.2739992 82.7679969,12.9569992 83.5129969,11.9179992 C84.3419969,10.7469992 85.5369969,10.1609992 87.0899969,10.1609992 C88.2189969,10.1609992 89.2279969,10.4689992 90.1259969,11.0879992 L90.1259969,20.7739992 C90.1259969,20.9879992 90.1359969,21.1769992 90.1569969,21.3489992 C89.3049969,21.6659992 88.4189969,21.8249992 87.5039969,21.8249992 Z M108.956994,12.7739992 C108.956994,9.37699924 107.008994,7.67899924 103.111994,7.67899924 C101.322994,7.67899924 99.5669939,8.12699924 97.7569939,8.97799924 L99.6469939,10.8159992 C100.860994,10.3819992 101.952994,10.1609992 102.921994,10.1609992 C105.006994,10.1609992 106.049994,10.8879992 106.049994,12.3309992 C106.049994,13.0089992 105.605994,13.5319992 104.708994,13.8919992 C104.324994,14.0389992 103.304994,14.2859992 101.640994,14.6239992 C99.9809939,14.9639992 98.7389939,15.4349992 97.9069939,16.0259992 C96.7339939,16.8559992 96.1499939,18.0569992 96.1499939,19.6249992 C96.1499939,21.1349992 96.7789939,22.3039992 98.0309939,23.1299992 C99.2029939,23.9219992 100.801994,24.3119992 102.825994,24.3119992 C104.613994,24.3119992 106.732994,23.9219992 109.181994,23.1299992 C109.031994,22.1739992 108.956994,21.4949992 108.956994,21.0919992 L108.956994,12.7739992 Z M102.825994,21.8249992 C100.502994,21.8249992 99.3429939,21.0189992 99.3429939,19.4059992 C99.3429939,18.5939992 99.7049939,17.9679992 100.430994,17.5249992 C100.918994,17.2279992 101.739994,16.9509992 102.889994,16.6929992 C104.613994,16.3119992 105.677994,15.9619992 106.083994,15.6429992 L106.083994,20.6489992 C106.083994,20.7739992 106.105994,20.9879992 106.147994,21.2869992 C105.104994,21.6469992 103.995994,21.8249992 102.825994,21.8249992 Z M164.956994,21.0169992 L164.956994,12.6989992 C164.956994,9.30199924 163.009994,7.60399924 159.111994,7.60399924 C157.322994,7.60399924 155.567994,8.05199924 153.756994,8.90199924 L155.646994,10.7399992 C156.860994,10.3059992 157.952994,10.0859992 158.921994,10.0859992 C161.007994,10.0859992 162.049994,10.8129992 162.049994,12.2549992 C162.049994,12.9339992 161.606994,13.4569992 160.708994,13.8169992 C160.324994,13.9639992 159.305994,14.2109992 157.641994,14.5479992 C155.980994,14.8889992 154.738994,15.3599992 153.907994,15.9509992 C152.734994,16.7799992 152.149994,17.9819992 152.149994,19.5499992 C152.149994,21.0599992 152.779994,22.2289992 154.031994,23.0549992 C155.203994,23.8459992 156.801994,24.2369992 158.826994,24.2369992 C160.613994,24.2369992 162.733994,23.8459992 165.181994,23.0549992 C165.031994,22.0989992 164.956994,21.4199992 164.956994,21.0169992 Z M158.826994,21.7499992 C156.503994,21.7499992 155.342994,20.9439992 155.342994,19.3299992 C155.342994,18.5189992 155.704994,17.8929992 156.431994,17.4499992 C156.919994,17.1519992 157.739994,16.8749992 158.889994,16.6169992 C160.613994,16.2359992 161.678994,15.8869992 162.084994,15.5669992 L162.084994,20.5739992 C162.084994,20.6989992 162.105994,20.9129992 162.147994,21.2119992 C161.104994,21.5719992 159.996994,21.7499992 158.826994,21.7499992 Z M137.110007,7.01299924 L134.009007,7.01299924 L134.009007,3.93499924 L130.987007,0.916999237 L130.987007,7.01299924 L129,7.01299924 L129,9.62999924 L130.987007,9.62999924 L130.987007,19.9189992 C130.987007,22.7999992 132.542007,24.2369992 135.657007,24.2369992 C136.752007,24.2369992 138.117007,23.9579992 139.755007,23.4039992 L138.947007,20.9189992 C137.784007,21.3469992 136.785007,21.5549992 135.960007,21.5549992 C134.661007,21.5549992 134.009007,20.9679992 134.009007,19.7799992 L134.009007,9.62999924 L139.755007,9.62999924 L137.110007,7.01299924 Z M51.6969951,19.5430979 L51.6839951,19.5430979 L44.6599951,1 L41.3699951,1 L50.1049951,24 L53.2769951,24 L62.0059951,1 L58.7159951,1 L51.6969951,19.5430979 Z M119.608376,7.83209131 C117.855909,7.83209131 115.577108,8.36461629 112.769989,9.44354959 C112.915698,10.4312496 112.992021,11.1383079 112.992021,11.5587745 L112.992021,23.9793991 L115.842753,23.9793991 L115.842753,11.9068495 C115.842753,11.7382662 115.817973,11.4744829 115.775351,11.1164912 C117.085736,10.5671079 118.342595,10.2934079 119.544938,10.2934079 C121.928808,10.2934079 123.123222,11.4655579 123.123222,13.8019245 L123.123222,23.9793991 L125.969989,23.9793991 L125.969989,13.2684078 C125.969989,9.63989959 123.850773,7.83209131 119.608376,7.83209131 Z M142.73999,9.47429126 C142.91099,10.5076079 142.99399,11.2414412 142.99399,11.6866995 L142.99399,23.9793991 L145.86699,23.9793991 L145.86699,11.6242245 C145.86699,11.4744829 145.85999,11.2523495 145.83899,10.9558412 C146.85999,10.5988412 147.88999,10.4213329 148.93699,10.4213329 C149.57599,10.4213329 150.19099,10.4838079 150.78799,10.6107412 L151.64899,8.11669963 C150.88399,7.92629964 150.10599,7.83209131 149.31899,7.83209131 C147.50999,7.83209131 145.31599,8.38048296 142.73999,9.47429126 Z" id="type" fill="#2B3050"></path>
                    <path d="M26.7331453,2.80797101 L24.4540846,8.87075362 C27.6919367,10.8731594 29.8597734,14.4427101 29.8597734,18.5185217 C29.8597734,24.7778406 24.7640698,29.8692609 18.4994851,29.8692609 C12.2359302,29.8692609 7.14022657,24.7778406 7.14022657,18.5185217 C7.14022657,14.4427101 9.3080633,10.8731594 12.5448856,8.87075362 L10.2668547,2.80797101 C4.61091207,5.77350725 0.75,11.6942899 0.75,18.5185217 C0.75,28.3134348 8.6963317,36.2541159 18.4994851,36.2541159 C28.3026384,36.2541159 36.25,28.3134348 36.25,18.5185217 C36.25,11.6942899 32.3890879,5.77350725 26.7331453,2.80797101 Z M18.499166,0.75 C17.0347176,0.75 15.6114633,0.931101449 14.25,1.26552174 L18.499166,12.5730435 L22.7493618,1.26552174 C21.3868687,0.931101449 19.9646442,0.75 18.499166,0.75 Z" id="icon" fill="#602351"></path>
                </g>
            </g>
        </g>
    </g>
</svg>