<?xml version="1.0" encoding="UTF-8" standalone="no"?>
<svg width="785px" height="500px" viewBox="0 0 785 500" version="1.1" xmlns="http://www.w3.org/2000/svg" xmlns:xlink="http://www.w3.org/1999/xlink">
    <!-- Generator: Sketch 3.6 (26304) - http://www.bohemiancoding.com/sketch -->
    <title>chart--t-cell_response</title>
    <desc>Created with Sketch.</desc>
    <defs></defs>
    <g id="graphics" stroke="none" stroke-width="1" fill="none" fill-rule="evenodd">
        <g id="chart--t-cell_response">
            <g id="Group" transform="translate(23.000000, 68.000000)">
                <g id="Grid" transform="translate(97.000000, 0.000000)">
                    <g id="grid" transform="translate(2.500000, 0.500000)" stroke-linecap="square">
                        <path d="M1,351 L536,351" id="Path-1065-Copy-8" stroke="#8186A0"></path>
                        <path d="M1,1 L536,1" id="Path-1065-Copy-13" stroke="#DFDFE5"></path>
                        <path d="M1,350 L1,1" id="Path-1070-Copy-6" stroke="#8186A0"></path>
                        <path d="M108,350 L108,1" id="Path-1070-Copy-8" stroke="#DFDFE5"></path>
                        <path d="M215,350 L215,1" id="Path-1070-Copy-9" stroke="#DFDFE5"></path>
                        <path d="M322,350 L322,1" id="Path-1070-Copy-10" stroke="#DFDFE5"></path>
                        <path d="M429,350 L429,1" id="Path-1070-Copy-12" stroke="#DFDFE5"></path>
                        <path d="M536,350 L536,1" id="Path-1070-Copy-11" stroke="#DFDFE5"></path>
                    </g>
                    <g id="X-Copy" transform="translate(3.000000, 352.000000)" fill="#8186A0">
                        <path d="M107,9 L107,0 L108,0 L108,9 L107,9 L107,9 Z" id="Fill-171-Copy"></path>
                        <path d="M0,9 L0,0 L1,0 L1,9 L0,9 L0,9 Z" id="Fill-171-Copy-7"></path>
                        <path d="M214,9 L214,0 L215,0 L215,9 L214,9 L214,9 Z" id="Fill-171-Copy-3"></path>
                        <path d="M321,9 L321,0 L322,0 L322,9 L321,9 L321,9 Z" id="Fill-171-Copy-8"></path>
                        <path d="M428,9 L428,0 L429,0 L429,9 L428,9 L428,9 Z" id="Fill-171-Copy-9"></path>
                        <path d="M535,9 L535,0 L536,0 L536,9 L535,9 L535,9 Z" id="Fill-171-Copy-6"></path>
                    </g>
                    <text id="5" font-family="Aller" font-size="11" font-weight="normal" line-spacing="30" fill="#383C55">
                        <tspan x="107.2" y="373">5</tspan>
                    </text>
                    <text id="0-copy" font-family="Aller" font-size="11" font-weight="normal" line-spacing="30" fill="#383C55">
                        <tspan x="0.7" y="373">0</tspan>
                    </text>
                    <text id="10" font-family="Aller" font-size="11" font-weight="normal" line-spacing="30" fill="#383C55">
                        <tspan x="210.4" y="373">10</tspan>
                    </text>
                    <text id="25" font-family="Aller" font-size="11" font-weight="normal" line-spacing="30" fill="#383C55">
                        <tspan x="532.4" y="373">25</tspan>
                    </text>
                    <text id="15" font-family="Aller" font-size="11" font-weight="normal" line-spacing="30" fill="#383C55">
                        <tspan x="317.4" y="373">15</tspan>
                    </text>
                    <text id="20" font-family="Aller" font-size="11" font-weight="normal" line-spacing="30" fill="#383C55">
                        <tspan x="424.4" y="373">20</tspan>
                    </text>
                </g>
                <g id="Untreated-+-Rectangle-2-Copy-8" transform="translate(23.000000, 23.000000)" fill="#AEB2C6">
                    <text id="Untreated" font-family="Aller" font-size="14" font-weight="normal" line-spacing="18">
                        <tspan x="0.23" y="33">Untreated</tspan>
                    </text>
                    <rect id="Rectangle-2-Copy-8" x="78" y="0" width="15" height="60"></rect>
                    <rect id="Rectangle-2-Copy-15" opacity="0.33" x="93" y="0" width="2" height="60"></rect>
                </g>
                <g id="ICMV-+-Rectangle-2-Copy-7-+-Rectangle-2-Copy-6" transform="translate(54.000000, 187.000000)" fill="#595E78">
                    <text id="ICMV" font-family="Aller" font-size="14" font-weight="normal" line-spacing="18">
                        <tspan x="0.226" y="34">ICMV</tspan>
                    </text>
                    <g id="Rectangle-2-Copy-7-+-Rectangle-2-Copy-6" transform="translate(47.000000, 0.000000)">
                        <rect id="Rectangle-2-Copy-7" opacity="0.33" transform="translate(204.000000, 30.000000) scale(-1, 1) translate(-204.000000, -30.000000) " x="170" y="29" width="68" height="2"></rect>
                        <rect id="Rectangle-2-Copy-17" opacity="0.33" x="238" y="0" width="2" height="60"></rect>
                        <rect id="Rectangle-2-Copy-6" x="0" y="0" width="170" height="60"></rect>
                    </g>
                </g>
                <g id="α--CTLA-4-+-Rectangle-2-Copy-9-+-Rectangle-2-Copy-10-+-α--PD-1-+-Rectangle-2-Copy-12-+-Rectangle-2-Copy-11-+-α--PD-L1-+-Rectangle-2-Copy-14-+-Rectangle-2-Copy-13" transform="translate(0.000000, 105.000000)" fill="#8186A0">
                    <g id="α--PD-L1-+-Rectangle-2-Copy-14-+-Rectangle-2-Copy-13" transform="translate(0.500000, 0.000000)">
                        <text id="Checkpoint-inhibitor" font-family="Aller" font-size="14" font-weight="normal" line-spacing="18">
                            <tspan x="14.11" y="16">Checkpoint</tspan>
                            <tspan x="31.162" y="34.3640137">inhibitor</tspan>
                            <tspan x="0.796" y="52.7280273">monotherapy</tspan>
                        </text>
                        <g id="Rectangle-2-Copy-14-+-Rectangle-2-Copy-13" transform="translate(100.000000, 0.000000)">
                            <rect id="Rectangle-2-Copy-14" x="0.5" y="0" width="30" height="60"></rect>
                            <rect id="Rectangle-2-Copy-13" opacity="0.33" x="30.5" y="29" width="24" height="2"></rect>
                            <rect id="Rectangle-2-Copy-16" opacity="0.33" x="54.5" y="0" width="2" height="60"></rect>
                        </g>
                    </g>
                </g>
                <g id="ICMV-+-α--CTLA-1-+-Rectangle-2-Copy-4-+-Rectangle-2-Copy-2-+-ICMV-+-α--PD-1-+-Rectangle-2-Copy-+-Rectangle-2-Copy-3-+-ICMV-+-α--PD-L1-+-Rectangle-2-+-Rectangle-2-Copy-5" transform="translate(1.000000, 270.000000)" fill="#602351">
                    <g id="ICMV-+-α--PD-L1-+-Rectangle-2-+-Rectangle-2-Copy-5">
                        <text id="ICMV-+--monotherapy" font-family="Aller" font-size="14" font-weight="normal" line-spacing="18">
                            <tspan x="41.508" y="26">ICMV + </tspan>
                            <tspan x="0.796" y="44.3640137">monotherapy</tspan>
                        </text>
                        <g id="Rectangle-2-+-Rectangle-2-Copy-5" transform="translate(100.000000, 0.000000)">
                            <rect id="Rectangle-2" x="0" y="0" width="400" height="60"></rect>
                            <rect id="Rectangle-2-Copy-5" opacity="0.33" transform="translate(434.000000, 30.000000) scale(-1, 1) translate(-434.000000, -30.000000) " x="400" y="29" width="68" height="2"></rect>
                            <rect id="Rectangle-28" opacity="0.33" x="468" y="0" width="2" height="60"></rect>
                        </g>
                    </g>
                </g>
                <text id="Cd8-T-cell-response-" font-family="Aller" font-size="14" font-weight="normal" line-spacing="18" fill="#383C55">
                    <tspan x="292.855" y="406">Cd8 T cell response (%)</tspan>
                </text>
            </g>
        </g>
    </g>
</svg>